<?xml version="1.0" standalone="no"?>
<!DOCTYPE svg PUBLIC "-//W3C//DTD SVG 20010904//EN"
 "http://www.w3.org/TR/2001/REC-SVG-20010904/DTD/svg10.dtd">
<svg version="1.0" xmlns="http://www.w3.org/2000/svg"
 width="3840.000000pt" height="2160.000000pt" viewBox="0 0 3840.000000 2160.000000"
 preserveAspectRatio="xMidYMid meet">

<g transform="translate(0.000000,2160.000000) scale(0.100000,-0.100000)"
fill="#cd6c13" stroke="none">
<path d="M30460 18757 l-1285 -743 0 -1492 0 -1493 745 -430 c580 -335 1365
-787 1802 -1037 33 -19 -113 -99 1421 785 l1187 685 -2 1491 -3 1491 -1285
742 c-707 409 -1287 743 -1290 743 -3 0 -583 -334 -1290 -742z m1862 149 c310
-178 835 -481 1168 -673 l605 -349 3 -1361 2 -1360 -1092 -630 c-601 -347
-1130 -652 -1176 -677 l-83 -47 -57 32 c-31 17 -498 286 -1037 597 -539 311
-1042 601 -1118 645 l-137 79 2 1361 3 1361 690 399 c995 574 1646 947 1656
947 4 0 261 -146 571 -324z"/>
<path d="M26920 14577 l-1285 -743 0 -1492 0 -1493 745 -430 c580 -335 1365
-787 1802 -1037 33 -19 -113 -99 1421 785 l1187 685 -2 1491 -3 1491 -1285
742 c-707 409 -1287 743 -1290 743 -3 0 -583 -334 -1290 -742z m1862 149 c310
-178 835 -481 1168 -673 l605 -349 3 -1361 2 -1360 -1092 -630 c-601 -347
-1130 -652 -1176 -677 l-83 -47 -57 32 c-31 17 -498 286 -1037 597 -539 311
-1042 601 -1118 645 l-137 79 2 1361 3 1361 690 399 c995 574 1646 947 1656
947 4 0 261 -146 571 -324z"/>
<path d="M30470 10367 l-1285 -743 0 -1492 0 -1493 745 -430 c580 -335 1365
-787 1802 -1037 33 -19 -113 -99 1421 785 l1187 685 -2 1491 -3 1491 -1285
742 c-707 409 -1287 743 -1290 743 -3 0 -583 -334 -1290 -742z m1862 149 c310
-178 835 -481 1168 -673 l605 -349 3 -1361 2 -1360 -1092 -630 c-601 -347
-1130 -652 -1176 -677 l-83 -47 -57 32 c-31 17 -498 286 -1037 597 -539 311
-1042 601 -1118 645 l-137 79 2 1361 3 1361 690 399 c995 574 1646 947 1656
947 4 0 261 -146 571 -324z"/>
</g>
</svg>
